<?xml version="1.0" encoding="UTF-8"?>
<svg xmlns="http://www.w3.org/2000/svg" xmlns:xlink="http://www.w3.org/1999/xlink" viewBox="0 0 215.1 172.1">
  <defs>
    <radialGradient id="radial-gradient" cx="154.7" cy="68.2" fx="154.7" fy="68.2" r="58.2" gradientTransform="translate(-30.7 9) rotate(.4) scale(.9 .8) skewX(0)" gradientUnits="userSpaceOnUse">
      <stop offset=".4" stop-color="#fff" stop-opacity=".9"/>
      <stop offset=".5" stop-color="#eef4f5" stop-opacity=".9"/>
      <stop offset=".7" stop-color="#c2d9db" stop-opacity=".9"/>
      <stop offset=".9" stop-color="#97bfc2" stop-opacity=".9"/>
    </radialGradient>
    <radialGradient id="radial-gradient-2" cx="-9.2" cy="409.6" fx="-9.2" fy="409.6" r="58.2" gradientTransform="translate(-204.2 -63.9) rotate(-59.8) scale(.9 .8) skewX(0)" xlink:href="#radial-gradient"/>
    <radialGradient id="radial-gradient-3" cx="33.4" cy="442.2" fx="33.4" fy="442.2" r="58.2" gradientTransform="translate(-198.5 269.7) rotate(59.8) scale(.9 -.8) skewX(0)" xlink:href="#radial-gradient"/>
  </defs>
  <g isolation="isolate">
    <g id="Layer_1" data-name="Layer 1">
      <path d="M153,51.6c-7.5-13.7-22.7-24.4-31.6-29.6-11.6-7-22.5-4-33.8,4.1-12.9,9-24.8,22.4-28.9,35.3-1.8,5.5.2,10.5,2.6,15.4,7.8,14.1,21.8,28.6,38.3,35.3,8.5,3.2,16.9,1,24.1-3.8,8.7-5.1,28-19.7,32.6-35.7,2.7-7.4.3-14.5-3.2-20.9h0Z" fill="url(#radial-gradient)" mix-blend-mode="multiply"/>
      <path d="M93.6,66.3c-15.7-.3-32.5,7.5-41.5,12.6-11.9,6.6-14.7,17.5-13.3,31.4,1.4,15.7,7.2,32.7,16.3,42.7,3.9,4.3,9.2,5.1,14.7,5.5,16.2.3,35.7-4.6,49.8-15.6,7.1-5.8,9.3-14.2,8.7-22.8,0-10.1-3.2-34.1-14.8-46.2-5.1-6.1-12.5-7.5-19.7-7.6h-.1Z" fill="url(#radial-gradient-2)" mix-blend-mode="multiply"/>
      <path d="M141.8,159c-15.7.3-32.5-7.5-41.5-12.6-11.9-6.6-14.7-17.5-13.3-31.4,1.4-15.7,7.2-32.7,16.3-42.7,3.9-4.3,9.2-5.1,14.7-5.5,16.2-.3,35.7,4.6,49.8,15.6,7.1,5.8,9.3,14.2,8.7,22.8,0,10.1-3.2,34.1-14.8,46.2-5.1,6.1-12.5,7.5-19.7,7.6h-.1Z" fill="url(#radial-gradient-3)" mix-blend-mode="multiply"/>
      <g>
        <path d="M146.4,160.2h2.8v.5h-2.2v1.1h1.5v.5h-1.5v1.3h2.3v.5h-2.9v-4Z" fill="#233D4D"/>
        <path d="M150.4,162.7l-.9-1.4h.7l.6,1,.6-1h.6l-1,1.4,1,1.5h-.7l-.7-1.1-.7,1.1h-.6l1-1.5Z" fill="#233D4D"/>
        <path d="M152.5,161.4h.6v.4c.2-.3.5-.5.9-.5.7,0,1.3.5,1.3,1.5h0c0,.9-.5,1.5-1.3,1.5s-.7-.2-.9-.5v1.5h-.6v-3.9ZM154.6,162.8h0c0-.6-.3-1-.8-1s-.8.4-.8,1h0c0,.6.3,1,.8,1s.8-.4.8-1Z" fill="#233D4D"/>
        <path d="M155.6,162.8c0-.9.6-1.5,1.4-1.5s1.3.6,1.3,1.4v.2h-2.1c0,.5.3.8.8.8s.7-.2.8-.5l.5.2c-.2.4-.6.8-1.3.8s-1.4-.6-1.4-1.4ZM157.7,162.6c0-.5-.3-.7-.7-.7s-.7.3-.8.7h1.5Z" fill="#233D4D"/>
        <path d="M158.7,161.4h.6v.5c0-.3.3-.5.8-.5h0v.6h-.3c-.5,0-.6.3-.6.8v1.4h-.6v-2.8Z" fill="#233D4D"/>
        <path d="M160.7,160.3h.6v.6h-.6v-.6ZM160.7,161.4h.6v2.8h-.6v-2.8Z" fill="#233D4D"/>
        <path d="M161.7,162.8c0-.9.6-1.5,1.4-1.5s1.3.6,1.3,1.4v.2h-2.1c0,.5.3.8.8.8s.7-.2.8-.5l.5.2c-.2.4-.6.8-1.3.8s-1.4-.6-1.4-1.4ZM163.8,162.6c0-.5-.3-.7-.7-.7s-.7.3-.8.7h1.5Z" fill="#233D4D"/>
        <path d="M164.9,161.4h.6v.5c.1-.4.4-.6.9-.6.6,0,1,.4,1,1.2v1.7h-.6v-1.7c0-.4-.2-.7-.6-.7s-.7.4-.7,1v1.4h-.6v-2.8Z" fill="#233D4D"/>
        <path d="M167.8,162.8c0-.8.6-1.5,1.4-1.5s1.1.4,1.3.9l-.6.2c0-.4-.3-.6-.7-.6s-.8.4-.8,1h0c0,.6.3,1,.8,1s.7-.2.7-.6l.6.2c-.2.6-.6.9-1.3.9s-1.4-.6-1.4-1.5Z" fill="#233D4D"/>
        <path d="M170.7,162.8c0-.9.6-1.5,1.4-1.5s1.3.6,1.3,1.4v.2h-2.1c0,.5.3.8.8.8s.7-.2.8-.5l.5.2c-.2.4-.6.8-1.3.8s-1.4-.6-1.4-1.4ZM172.8,162.6c0-.5-.3-.7-.7-.7s-.7.3-.8.7h1.5Z" fill="#233D4D"/>
      </g>
      <g>
        <path d="M40.1,162.2c0-1.2.8-2.1,1.8-2.1s1.6.5,1.7,1.5h-.6c-.1-.7-.5-.9-1.1-.9s-1.2.6-1.2,1.5h0c0,1,.5,1.5,1.2,1.5s1-.2,1.1-1h.6c-.2,1.1-.9,1.5-1.8,1.5s-1.8-.8-1.8-2.1Z" fill="#233D4D"/>
        <path d="M43.9,162.8c0-.9.6-1.5,1.4-1.5s1.4.6,1.4,1.5-.6,1.5-1.4,1.5-1.4-.6-1.4-1.5ZM46.1,162.8h0c0-.6-.3-1-.8-1s-.8.4-.8,1h0c0,.6.3,1,.8,1s.8-.4.8-.9Z" fill="#233D4D"/>
        <path d="M47.2,161.4h.6v.5c.1-.4.4-.6.9-.6.6,0,1,.4,1,1.2v1.7h-.6v-1.7c0-.4-.2-.7-.6-.7s-.7.4-.7,1v1.4h-.6v-2.8Z" fill="#233D4D"/>
        <path d="M50.2,161.4h.6v.5c.1-.4.4-.6.9-.6.6,0,1,.4,1,1.2v1.7h-.6v-1.7c0-.4-.2-.7-.6-.7s-.7.4-.7,1v1.4h-.6v-2.8Z" fill="#233D4D"/>
        <path d="M53,162.8c0-.9.6-1.5,1.4-1.5s1.3.6,1.3,1.4v.2h-2.1c0,.5.3.8.8.8s.7-.2.8-.5l.5.2c-.2.4-.6.8-1.3.8s-1.4-.6-1.4-1.4ZM55.1,162.6c0-.5-.3-.7-.7-.7s-.7.3-.8.7h1.5Z" fill="#233D4D"/>
        <path d="M56.1,162.8c0-.8.6-1.5,1.4-1.5s1.1.4,1.3.9l-.6.2c0-.4-.3-.6-.7-.6s-.8.4-.8,1h0c0,.6.3,1,.8,1s.7-.2.7-.6l.6.2c-.2.6-.6.9-1.3.9s-1.4-.6-1.4-1.5Z" fill="#233D4D"/>
        <path d="M59.3,163.5v-1.6h-.4v-.5h.4v-.5l.6-.4v.9h.6v.5h-.6v1.5c0,.2,0,.3.3.3h.3v.5h-.5c-.5,0-.6-.3-.7-.7Z" fill="#233D4D"/>
        <path d="M61,160.3h.6v.6h-.6v-.6ZM61,161.4h.6v2.8h-.6v-2.8Z" fill="#233D4D"/>
        <path d="M62.1,162.8c0-.9.6-1.5,1.4-1.5s1.4.6,1.4,1.5-.6,1.5-1.4,1.5-1.4-.6-1.4-1.5ZM64.3,162.8h0c0-.6-.3-1-.8-1s-.8.4-.8,1h0c0,.6.3,1,.8,1s.8-.4.8-.9Z" fill="#233D4D"/>
        <path d="M65.3,161.4h.6v.5c.1-.4.4-.6.9-.6.6,0,1,.4,1,1.2v1.7h-.6v-1.7c0-.4-.2-.7-.6-.7s-.7.4-.7,1v1.4h-.6v-2.8Z" fill="#233D4D"/>
      </g>
      <g>
        <path d="M98.9,11h.6v4h-.6v-4Z" fill="#233D4D"/>
        <path d="M100,13.6c0-.9.5-1.5,1.3-1.5s.7.2.9.5v-1.6h.6v4h-.6v-.4c-.2.3-.5.5-.9.5-.7,0-1.3-.5-1.3-1.5ZM102.2,13.6h0c0-.6-.3-1-.8-1s-.8.4-.8,1h0c0,.6.3,1,.8,1s.8-.4.8-1Z" fill="#233D4D"/>
        <path d="M103.2,13.6c0-.9.6-1.5,1.4-1.5s1.3.6,1.3,1.4v.2h-2.1c0,.5.3.8.8.8s.7-.2.8-.5l.5.2c-.2.4-.6.8-1.3.8s-1.4-.6-1.4-1.4ZM105.3,13.3c0-.5-.3-.7-.7-.7s-.7.3-.8.7h1.5Z" fill="#233D4D"/>
        <path d="M106.4,12.2h.6v.5c.1-.4.4-.6.9-.6.6,0,1,.4,1,1.2v1.7h-.6v-1.7c0-.4-.2-.7-.6-.7s-.7.4-.7,1v1.4h-.6v-2.8Z" fill="#233D4D"/>
        <path d="M109.6,14.3v-1.6h-.4v-.5h.4v-.6l.6-.4v.9h.6v.5h-.6v1.5c0,.2,0,.3.3.3h.3v.5h-.5c-.5,0-.6-.3-.7-.7Z" fill="#233D4D"/>
        <path d="M111.3,11.1h.6v.6h-.6v-.6ZM111.3,12.2h.6v2.8h-.6v-2.8Z" fill="#233D4D"/>
        <path d="M112.7,14.3v-1.6h-.4v-.5h.4v-.6l.6-.4v.9h.6v.5h-.6v1.5c0,.2,0,.3.3.3h.3v.5h-.5c-.5,0-.6-.3-.7-.7Z" fill="#233D4D"/>
        <path d="M114.2,15.6h.3c.4,0,.5,0,.7-.7l-1.1-2.8h.6l.8,2.1.7-2.1h.6l-1.1,3c-.3.7-.5.9-1.2.9h-.3v-.5Z" fill="#233D4D"/>
      </g>
      <g>
        <path d="M94.4,94.8h1.3c1.1,0,1.6.4,1.6,1.2s-.5,1.3-1.6,1.3h-.6v1.5h-.6v-4ZM95.7,96.8c.7,0,1-.2,1-.8s-.3-.7-1-.7h-.7v1.5h.6Z" fill="#233D4D"/>
        <path d="M97.8,95.9h.6v.5c0-.3.3-.5.8-.5h0v.6h-.3c-.5,0-.6.3-.6.8v1.4h-.6v-2.8Z" fill="#233D4D"/>
        <path d="M99.6,97.3c0-.9.6-1.5,1.4-1.5s1.3.6,1.3,1.4v.2h-2.1c0,.5.3.8.8.8s.7-.2.8-.5l.5.2c-.2.4-.6.8-1.3.8s-1.4-.6-1.4-1.4ZM101.7,97.1c0-.5-.3-.7-.7-.7s-.7.3-.8.7h1.5Z" fill="#233D4D"/>
        <path d="M103.1,96.4h-.5v-.5h.5v-.3c0-.7.2-.9.8-.9h.5v.5h-.2c-.4,0-.4,0-.4.4v.2h.6v.5h-.6v2.3h-.6v-2.3Z" fill="#233D4D"/>
        <path d="M104.4,97.3c0-.9.6-1.5,1.4-1.5s1.3.6,1.3,1.4v.2h-2.1c0,.5.3.8.8.8s.7-.2.8-.5l.5.2c-.2.4-.6.8-1.3.8s-1.4-.6-1.4-1.4ZM106.5,97.1c0-.5-.3-.7-.7-.7s-.7.3-.8.7h1.5Z" fill="#233D4D"/>
        <path d="M107.6,95.9h.6v.5c0-.3.3-.5.8-.5h0v.6h-.3c-.5,0-.6.3-.6.8v1.4h-.6v-2.8Z" fill="#233D4D"/>
        <path d="M109.4,97.3c0-.9.6-1.5,1.4-1.5s1.3.6,1.3,1.4v.2h-2.1c0,.5.3.8.8.8s.7-.2.8-.5l.5.2c-.2.4-.6.8-1.3.8s-1.4-.6-1.4-1.4ZM111.5,97.1c0-.5-.3-.7-.7-.7s-.7.3-.8.7h1.5Z" fill="#233D4D"/>
        <path d="M112.6,95.9h.6v.5c.1-.4.4-.6.9-.6.6,0,1,.4,1,1.2v1.7h-.6v-1.7c0-.4-.2-.7-.6-.7s-.7.4-.7,1v1.4h-.6v-2.8Z" fill="#233D4D"/>
        <path d="M115.4,97.3c0-.8.6-1.5,1.4-1.5s1.1.4,1.3.9l-.6.2c0-.4-.3-.6-.7-.6s-.8.4-.8,1h0c0,.6.3,1,.8,1s.7-.2.7-.6l.6.2c-.2.6-.6.9-1.3.9s-1.4-.6-1.4-1.5Z" fill="#233D4D"/>
        <path d="M118.3,97.3c0-.9.6-1.5,1.4-1.5s1.3.6,1.3,1.4v.2h-2.1c0,.5.3.8.8.8s.7-.2.8-.5l.5.2c-.2.4-.6.8-1.3.8s-1.4-.6-1.4-1.4ZM120.4,97.1c0-.5-.3-.7-.7-.7s-.7.3-.8.7h1.5Z" fill="#233D4D"/>
      </g>
    </g>
  </g>
</svg>