<?xml version="1.0" encoding="UTF-8"?>
<svg id="Layer_1" data-name="Layer 1" xmlns="http://www.w3.org/2000/svg" viewBox="0 0 742 415.4">
  <g>
    <path d="M19.3,162.2v-95.7c0-15.6-7.2-16-19.3-18.3v-7h70.4c39.7,0,71.3,10.7,71.3,43s-30.9,47.4-75.5,47.4-3.7-10,0-10c31.8,0,37.2-17.6,37.2-36s-3.9-34.1-30.7-34.1-17,3.7-17,10.7v100.1c0,15.6,7.2,16,19.3,18.3v7H0v-7c12.1-2.3,19.3-2.8,19.3-18.3Z" fill="#1a3e4f"/>
    <path d="M201.1,170.8c-7.9,8.4-20.7,18.3-38.5,18.3s-29.7-6.7-29.7-24.6,20-26,48.1-34.1c7.2-2.3,15.8-3.7,20.2-10.4v-4.4c0-18.3-7.4-22.1-21.4-22.1s-5.8,2.3-7.2,6c-6.5,18.6-12.1,24.1-20,24.1s-12.1-5.3-12.1-11.1c0-17.6,37.6-29.3,58.5-29.3s35.8,13.7,35.8,35.8v45.7c0,7.2,7.7,9.3,17.4,3.5v6.7c-9.8,6.7-16.5,11.1-30.2,14.2-10,0-20.2-8.8-20.9-18.3ZM180.7,173.8c7.7,0,14.6-5.3,20.4-13v-26.9l-17.2,4.6c-12.1,3.5-17.2,11.1-17.2,19s4.9,16.3,13.9,16.3Z" fill="#1a3e4f"/>
    <path d="M265.5,167.1v-51.1c0-8.4-1.9-13-16.5-14.4v-6.5c16.5-2.6,32-6.3,47.6-13.5l4.6,4.4-4.2,28.3h7c8.1-20.9,16.5-32.7,30.4-32.7s5.8.5,9.1,1.9v30.4c-5.6-2.8-10.9-3.5-15.3-3.5-20.9,0-29,16.7-29,32.5v24.1c0,10.2,5.6,11.4,17.2,13.5v7h-67.3v-7c10.9-2.1,16.5-3.3,16.5-13.5Z" fill="#1a3e4f"/>
    <path d="M408.2,170.8c-7.9,8.4-20.7,18.3-38.5,18.3s-29.7-6.7-29.7-24.6,20-26,48.1-34.1c7.2-2.3,15.8-3.7,20.2-10.4v-4.4c0-18.3-7.4-22.1-21.4-22.1s-5.8,2.3-7.2,6c-6.5,18.6-12.1,24.1-20,24.1s-12.1-5.3-12.1-11.1c0-17.6,37.6-29.3,58.5-29.3s35.8,13.7,35.8,35.8v45.7c0,7.2,7.7,9.3,17.4,3.5v6.7c-9.8,6.7-16.5,11.1-30.2,14.2-10,0-20.2-8.8-20.9-18.3ZM387.7,173.8c7.7,0,14.6-5.3,20.4-13v-26.9l-17.2,4.6c-12.1,3.5-17.2,11.1-17.2,19s4.9,16.3,13.9,16.3Z" fill="#1a3e4f"/>
    <path d="M470.5,167.1v-80.7c0-8.4.2-41-17-42.6v-6.5c16.5-1.9,31.8-6,46-13.2l4.6,4.4v138.7c0,10.2,4.9,11.4,17,13.5v7h-67.6v-7c12.1-2.1,17-3.3,17-13.5Z" fill="#1a3e4f"/>
    <path d="M534.1,167.1V34.4c0-8.4.2-13-17-14.6v-6.5c16.5-1.9,31.8-6,46-13.2l4.6,4.4v162.7c0,10.2,4.9,11.4,17,13.5v7h-67.6v-7c12.1-2.1,17-3.3,17-13.5Z" fill="#1a3e4f"/>
    <path d="M577.3,136.9c0-34.1,26.5-53.6,55.7-53.6s53.4,28.8,43.9,51.6h-65.5c3,22.5,17,36.2,37.2,36.2s20-3.7,24.6-9.8l4.9,3.9c-6,14.9-23.2,23.9-45,23.9-32.3,0-55.7-20.2-55.7-52.2ZM645.8,125.3c3-16.3-1.6-32.5-15.3-32.5s-19.7,10.2-19.7,32v.5h35.1Z" fill="#1a3e4f"/>
    <path d="M691.4,167.1V34.4c0-8.4.2-13-17-14.6v-6.5c16.5-1.9,31.8-6,46-13.2l4.6,4.4v162.7c0,10.2,4.9,11.4,17,13.5v7h-67.6v-7c12.1-2.1,17-3.3,17-13.5Z" fill="#1a3e4f"/>
    <path d="M240.9,336c-7.9,8.4-20.7,18.3-38.5,18.3s-29.7-6.7-29.7-24.6,20-26,48.1-34.1c7.2-2.3,15.8-3.7,20.2-10.4v-4.4c0-18.3-7.4-22.1-21.4-22.1s-5.8,2.3-7.2,6c-6.5,18.6-12.1,24.1-20,24.1s-12.1-5.3-12.1-11.1c0-17.6,37.6-29.3,58.5-29.3s35.8,13.7,35.8,35.8v45.7c0,7.2,7.7,9.3,17.4,3.5v6.7c-9.8,6.7-16.5,11.1-30.2,14.2-10,0-20.2-8.8-20.9-18.3ZM220.4,339c7.7,0,14.6-5.3,20.4-13v-26.9l-17.2,4.6c-12.1,3.5-17.2,11.1-17.2,19s4.9,16.3,13.9,16.3Z" fill="#1a3e4f"/>
    <path d="M297.5,334.8v-71.3h-17.6v-9.3c15.8-5.8,30.7-14.9,42.5-25.8h8.8v23.9l27.9-2.6c-.5,5.1-.7,8.6-.7,13.7h-27.2v61.8c0,8.8,3,12.1,9.3,12.1s15.1-1.9,20.7-3.7v8.4c-9.5,3.7-26.5,9.1-39.7,13-14.2,0-23.9-11.4-23.9-20.2Z" fill="#1a3e4f"/>
    <path d="M444.6,332.3v-44.6c0-16-5.6-20.7-13.7-20.7s-12.1,1.9-20.2,11.6v53.6c0,10.2,4.6,11.4,12.8,13.5v7h-63.4v-7c12.1-2.1,17-3.3,17-13.5v-104.7c0-8.4.2-13-17-14.6v-6.5c16.5-1.9,31.8-6,46-13.2l4.6,4.4v71.1c10-10.9,20-20.2,37.4-20.2,24.8,0,30.2,19.7,30.2,35.8v48.1c0,10.2,4.6,11.4,15.3,13.5v7h-61.8v-7c8.1-2.1,12.8-3.3,12.8-13.5Z" fill="#1a3e4f"/>
    <path d="M59,327.1v-95.7c0-15.6-7.2-16-19.3-18.3v-7h70.4c39.7,0,71.3,10.7,71.3,43s-30.9,47.4-75.5,47.4-3.7-10,0-10c31.8,0,37.2-17.6,37.2-36s-3.9-34.1-30.7-34.1-17,3.7-17,10.7v100.1c0,15.6,7.2,16,19.3,18.3v7H39.7v-7c12.1-2.3,19.3-2.8,19.3-18.3Z" fill="#1a3e4f"/>
  </g>
  <g>
    <path d="M41.6,388.4h18.9v5h-12.5v6.4h8.9v5h-8.9v10h-6.4v-26.4Z" fill="#1a3e4f"/>
    <path d="M65.3,401.6c0-8.2,5.5-13.8,13.6-13.8s13.3,5.6,13.3,13.8-5.5,13.8-13.6,13.8-13.3-5.6-13.3-13.8ZM85.6,401.8v-.5c0-5.3-2.4-8.4-6.8-8.4s-6.8,3-6.8,8.4v.5c0,5.3,2.5,8.4,6.8,8.4s6.8-3,6.8-8.4Z" fill="#1a3e4f"/>
    <path d="M99.2,388.4h10.6c8.1,0,10.8,3,10.8,7.2s-2.4,6.3-6.4,7.1c4.2,1,6,4.1,6.7,10,0,.5.2,1.7.2,2.1h-6.6s0-.9,0-1.2c-.6-5.1-2.2-8.3-6.6-8.4h-2.4v9.6h-6.3v-26.4ZM108.9,401.2c3.9,0,5.5-2.3,5.5-4.6s-1.5-3.8-5.2-3.8h-3.7v8.5l3.3-.2Z" fill="#1a3e4f"/>
    <path d="M140.3,388.4h6.4v10.6h10.1v-10.6h6.4v26.4h-6.4v-11h-10.1v11h-6.4v-26.4Z" fill="#1a3e4f"/>
    <path d="M171.3,388.4h19.8v4.9h-13.5v5.6h8.6v4.9h-8.6v6h13.9v5h-20.2v-26.4Z" fill="#1a3e4f"/>
    <path d="M206.6,388.4h7.1l9.3,26.4h-6.7l-2.3-6.6h-9.1l-2.3,6.6h-5.7l9.7-26.4ZM212.8,403.8l-3.1-9.1-3.3,9.1h6.3Z" fill="#1a3e4f"/>
    <path d="M229,388.4h6.4v21.5h11.3v4.9h-17.7v-26.4Z" fill="#1a3e4f"/>
    <path d="M256.1,393.4h-7.6v-5h21.5v5h-7.5v21.4h-6.4v-21.4Z" fill="#1a3e4f"/>
    <path d="M276.1,388.4h6.4v10.6h10.1v-10.6h6.4v26.4h-6.4v-11h-10.1v11h-6.4v-26.4Z" fill="#1a3e4f"/>
    <path d="M314,403.1l-9.2-14.7h7.2l5.7,9.8,5.7-9.8h6.3l-9.3,14.9v11.5h-6.4v-11.7Z" fill="#1a3e4f"/>
    <path d="M347.6,388.4h6.4v21.5h11.3v4.9h-17.7v-26.4Z" fill="#1a3e4f"/>
    <path d="M371.6,388.4h6.4v26.4h-6.4v-26.4Z" fill="#1a3e4f"/>
    <path d="M383.9,388.4h6.7l6.5,19.2,6.2-19.2h5.7l-9.3,26.4h-6.5l-9.3-26.4Z" fill="#1a3e4f"/>
    <path d="M414.9,388.4h6.4v26.4h-6.4v-26.4Z" fill="#1a3e4f"/>
    <path d="M429.5,388.4h7.1l10.7,16.5v-16.5h5.4v26.4h-6.1l-11.8-18.2v18.2h-5.4v-26.4Z" fill="#1a3e4f"/>
    <path d="M459.9,402.1c0-8.8,5.2-14.2,13.1-14.2s10.8,3.6,11.7,9.6h-6.2c-.5-2.9-2.4-4.4-5.4-4.4s-6.6,3.2-6.6,8.8v.5c0,5.2,2.5,8.1,6.7,8.1s5.3-1.7,5.6-4.6h-5.2v-4.5h11.3v13.4h-5.6v-3.4c-1.4,2.5-3.9,4-7.5,4-7.2,0-11.8-5.2-11.8-13.3Z" fill="#1a3e4f"/>
  </g>
</svg>