<?xml version="1.0" encoding="UTF-8"?>
<svg id="Layer_1" data-name="Layer 1" xmlns="http://www.w3.org/2000/svg" viewBox="0 0 379 152">
  <path d="M227,121l-5-1.3c-6.1-1.6-9.5-3.1-9.5-7s3.4-6.8,8.7-6.8,7.9,3.1,8.3,8.8h13.3c-1.1-8.2-9.3-13.3-21.6-13.3s-21.2,6.4-21.2,15.5,4.4,11.6,15,14.2l4.9,1.2c7.5,1.8,10.7,4.2,10.7,8s-3.7,6.9-9.7,6.9-9-3.8-9.4-10.5h-13.5c1.2,9.6,9.3,14.8,22.9,14.8s22.5-5,22.5-16.1-6.3-11.9-16.6-14.5Z"/>
  <path d="M128.3,124.5c0-7.2,3-10.8,9.1-10.8s4.5.2,7.2.6v-11.7c-.9,0-1.9-.1-2.7-.1-4.5,0-7.8,1.8-10.3,5.6-1.4,2-2.3,4.1-2.9,6.2,0,.3-.3.4-.6.4-.3,0-.5-.3-.5-.6v-11.5h-14.2v47.8h14.8v-26Z"/>
  <path d="M92.3,142.7c.2,0,.4.3.4.5l.4,7.2h13.5l-.2-3.9c-.2-3-.3-4.9-.3-6.1v-19.5c.1-5.8-1.5-10.4-4.6-13.6-3.8-3.8-9.8-5.7-17.9-5.7-12,0-21.2,6.1-22.5,15h13.7c.4-6.9,3.5-10.7,8.8-10.7s8.3,3.6,8.3,11.2v2.8c0,.3-.2.5-.5.6l-9,1.5c-17,3-23.1,7.1-23.1,16s8.9,13.4,16.6,13.4,12.5-2.9,15.9-8.5c.1-.2.4-.3.6-.3ZM81.8,144.7c-4.7,0-7.8-3.2-7.8-8.2s5.3-9.8,17.3-10.9c.2,0,.3,0,.4.1.1.1.2.3.2.4v4.3c0,9.7-5.2,14.1-10.1,14.1Z"/>
  <path d="M370.1,135.9c-1.8,6.1-6.8,9.7-13.3,9.7s-13.5-7-13.5-18.7.3-.6.6-.6h33.7v-1.4c0-13.8-10.2-23.4-24.9-23.4s-25.2,8.7-25.2,24.8,13.4,25.1,26.7,25.1,20.7-5.8,23.2-15.6h-7.3ZM352.6,106c2.3,0,4.2.7,5.6,2.2,2.3,2.4,3.4,6.5,3.4,12.8,0,.3-.3.6-.6.6h-17.1c-.2,0-.3,0-.4-.2-.1-.1-.2-.3-.2-.4.2-9.9,3.3-14.9,9.3-14.9Z"/>
  <path d="M28.2,84.2H4.9v66.2h16.1v-25.4c0-.3.3-.6.6-.6h6.6c14,0,30.8-3.5,30.8-20.4s-10.4-19.8-30.8-19.8ZM27.5,119.1h-5.9c-.3,0-.6-.3-.6-.6v-28.3c0-.3.3-.6.6-.6h5.9c9.2,0,14.5,5.3,14.5,14.5s-5.2,14.9-14.5,14.9Z"/>
  <rect x="249.2" y="102.6" width="14.8" height="47.8"/>
  <path d="M321.8,150.4v-68.1h-14.8v25.7c0,.2-.2.5-.4.5-.2,0-.5,0-.6-.2-3.2-4.5-8.1-6.8-14.6-6.8-13.1,0-21.6,9.7-21.6,24.7s8.3,25.2,21.7,25.2,12-2.9,15.3-8.5c.1-.2.4-.3.6-.3.2,0,.4.3.4.6v7.1h14.1ZM296.2,145c-6.8,0-10.2-6.3-10.2-18.8s3.4-18.3,10.1-18.3,11.2,7.5,11.2,18.3-4.7,18.8-11.2,18.8Z"/>
  <g>
    <rect x="214.6" y=".5" width="15.4" height="12.1"/>
    <path d="M69,11.3v8.9c0,.3-.3.6-.6.6h-7.2v4.9h7.2c.3,0,.6.3.6.6v30.5c0,8.8,3.8,11.9,14.4,11.9s7.9,0,11.3-.2v-4.7h-4.7c-4.1,0-6.2-1-6.2-6.5v-31c0-.3.4-.6.7-.6h10.3v-4.9h-10.3c-.3,0-.6-.3-.6-.6V5.9l-14.8,5.4Z"/>
    <path d="M147,68.6V20.8h-14.8v24.3c0,11.2-3.7,17.9-9.9,17.9s-7.4-1.4-7.4-10.5v-31.8h-14.8v30c0,11.9,6.1,18.8,16.8,18.8s12.2-3,15-8.3c.1-.2.4-.4.6-.3.3,0,.4.3.4.6v7.1h14.1Z"/>
    <path d="M0,49.5c1.6,12.8,12.3,20.1,29.4,20.1s28.2-11.1,28.2-21.4-10.3-16.9-21.4-19.6l-8.4-2c-7.7-1.8-11.1-4.9-11.1-10s5.4-10.5,12.9-10.5,11.8,4.4,12.4,12.4h14.7C55.1,7.7,44.8,1,29.6,1S2.9,11.8,2.9,22.1s5.7,15.2,20.4,19l7.2,1.8c6.3,1.6,12.7,4.2,12.7,11.3s-5.6,10.3-13.9,10.3-13.9-5.3-14.4-15H0Z"/>
    <path d="M263.4,69.7c15.7,0,26.7-10.4,26.7-25.2s-11.2-24.8-26.7-24.8-26.7,8.5-26.7,24.8,11,25.2,26.7,25.2ZM263.4,24.1c9.5,0,10.6,11.6,10.6,20.4s-1.2,20.8-10.6,20.8-10.6-11.9-10.6-20.8,1.2-20.4,10.6-20.4Z"/>
    <rect x="214.9" y="20.8" width="14.8" height="47.8"/>
    <path d="M189.8,26.2c0,.2-.2.5-.4.5-.2,0-.5,0-.6-.2-3.2-4.5-8.1-6.8-14.6-6.8-13.1,0-21.6,9.7-21.6,24.7s8.3,25.2,21.7,25.2,12-2.9,15.3-8.5c.1-.2.4-.3.6-.3.2,0,.4.3.4.6v7.1h14.1V.5h-14.8v25.7ZM178.9,63.2c-6.8,0-10.2-6.3-10.2-18.8s3.4-18.3,10.1-18.3,11.2,7.5,11.2,18.3-4.7,18.8-11.2,18.8Z"/>
  </g>
  <path d="M148.7,82.3v68.1h14.8v-17.4c0-.2,0-.3.2-.4l6.3-6c.1-.1.3-.2.5-.1.2,0,.3.2.4.3l11.3,23.6h16.3l-16.6-34.5c-.1-.2,0-.5.1-.7l13.5-12.7h-8.3l-22.7,21.7c-.2.2-.4.2-.6.1-.2,0-.3-.3-.3-.5v-41.6h-14.8Z"/>
  <rect x="248.9" y="82.3" width="15.4" height="12.1"/>
</svg>